<svg xmlns="http://www.w3.org/2000/svg" viewBox="0 0 24 24" fill="none">
  <path d="M8.5 13.5C9.32843 13.5 10 12.8284 10 12C10 11.1716 9.32843 10.5 8.5 10.5C7.67157 10.5 7 11.1716 7 12C7 12.8284 7.67157 13.5 8.5 13.5Z" fill="white"/>
  <path d="M15.5 13.5C16.3284 13.5 17 12.8284 17 12C17 11.1716 16.3284 10.5 15.5 10.5C14.6716 10.5 14 11.1716 14 12C14 12.8284 14.6716 13.5 15.5 13.5Z" fill="white"/>
  <path d="M12 2C6.48 2 2 6.48 2 12C2 17.52 6.48 22 12 22C17.52 22 22 17.52 22 12C22 6.48 17.52 2 12 2ZM18.5 13C18.5 15.76 16.39 18 13.75 18H10.25C7.61 18 5.5 15.76 5.5 13C5.5 10.24 7.61 8 10.25 8H13.75C16.39 8 18.5 10.24 18.5 13Z" fill="#07C160"/>
  <path d="M18.5 13C18.5 13.33 18.47 13.66 18.42 13.98C18.19 15.67 16.53 17.16 14.61 17.8C14.33 17.89 14.04 17.95 13.75 18H10.25C7.61 18 5.5 15.76 5.5 13C5.5 10.24 7.61 8 10.25 8H13.75C14.04 8 14.33 8.06 14.61 8.15C16.53 8.79 18.19 10.28 18.42 11.97C18.47 12.29 18.5 12.62 18.5 12.96V13ZM17 12C17 12.8284 16.3284 13.5 15.5 13.5C14.6716 13.5 14 12.8284 14 12C14 11.1716 14.6716 10.5 15.5 10.5C16.3284 10.5 17 11.1716 17 12ZM10 12C10 12.8284 9.32843 13.5 8.5 13.5C7.67157 13.5 7 12.8284 7 12C7 11.1716 7.67157 10.5 8.5 10.5C9.32843 10.5 10 11.1716 10 12Z" fill="white"/>
</svg>
